<svg xmlns="http://www.w3.org/2000/svg" viewBox="0 0 470 300" role="img" aria-label="กราฟแท่งเดียวกันที่แกนเริ่มจากศูนย์ ผลต่างจริงเล็กมาก" font-family="Leelawadee UI, Segoe UI, system-ui, sans-serif"><text x="24" y="26" font-size="14" font-weight="700" fill="#0b0b0b">แกน Y เริ่มที่ 0</text><text x="24" y="40" font-size="11" fill="#898781">ค่าตั๋วเฉลี่ย (ปอนด์)</text><line x1="96" y1="238.0" x2="446" y2="238.0" stroke="#e1e0d9" stroke-width="1"/><text x="88" y="242.0" text-anchor="end" font-size="11" fill="#898781">0</text><line x1="96" y1="190.0" x2="446" y2="190.0" stroke="#e1e0d9" stroke-width="1"/><text x="88" y="194.0" text-anchor="end" font-size="11" fill="#898781">500</text><line x1="96" y1="142.0" x2="446" y2="142.0" stroke="#e1e0d9" stroke-width="1"/><text x="88" y="146.0" text-anchor="end" font-size="11" fill="#898781">1,000</text><line x1="96" y1="94.0" x2="446" y2="94.0" stroke="#e1e0d9" stroke-width="1"/><text x="88" y="98.0" text-anchor="end" font-size="11" fill="#898781">1,500</text><line x1="96" y1="46.0" x2="446" y2="46.0" stroke="#e1e0d9" stroke-width="1"/><text x="88" y="50.0" text-anchor="end" font-size="11" fill="#898781">2,000</text><rect x="151.5" y="78.9" width="64.0" height="159.1" rx="4" fill="#2a78d6"/><rect x="151.5" y="234.0" width="64.0" height="4" fill="#2a78d6"/><text x="183.5" y="71.9" text-anchor="middle" font-size="12" font-weight="600" fill="#52514e">1,658</text><text x="183.5" y="256.0" text-anchor="middle" font-size="11.5" fill="#52514e">Business</text><rect x="326.5" y="80.9" width="64.0" height="157.1" rx="4" fill="#2a78d6"/><rect x="326.5" y="234.0" width="64.0" height="4" fill="#2a78d6"/><text x="358.5" y="73.9" text-anchor="middle" font-size="12" font-weight="600" fill="#52514e">1,636</text><text x="358.5" y="256.0" text-anchor="middle" font-size="11.5" fill="#52514e">Premium</text><text x="358.5" y="270.0" text-anchor="middle" font-size="11.5" fill="#52514e">Economy</text><line x1="96" y1="238" x2="446" y2="238" stroke="#52514e" stroke-width="1.4"/>
</svg>
