<svg xmlns="http://www.w3.org/2000/svg" viewBox="0 0 940 330" role="img" aria-label="ส่วนประกอบของ Superset และส่วนที่ต้องสำรอง" font-family="Leelawadee UI, Segoe UI, system-ui, sans-serif"><defs><marker id="หัวลูกศร-52514e" viewBox="0 0 10 10" refX="9" refY="5" markerWidth="6" markerHeight="6" orient="auto-start-reverse"><path d="M0,1 L9,5 L0,9 z" fill="#52514e"/></marker><marker id="หัวลูกศร-2a78d6" viewBox="0 0 10 10" refX="9" refY="5" markerWidth="6" markerHeight="6" orient="auto-start-reverse"><path d="M0,1 L9,5 L0,9 z" fill="#2a78d6"/></marker><marker id="หัวลูกศร-eda100" viewBox="0 0 10 10" refX="9" refY="5" markerWidth="6" markerHeight="6" orient="auto-start-reverse"><path d="M0,1 L9,5 L0,9 z" fill="#eda100"/></marker></defs><text x="24" y="30" font-size="13" fill="#52514e">ตอนติดตั้งเองจะเห็นส่วนประกอบเหล่านี้โผล่ขึ้นมาเป็น container คนละตัว</text><rect x="24" y="134" width="118" height="56" rx="9" fill="#ffffff" stroke="#52514e" stroke-width="1.4"/><text x="83.0" y="166.68" text-anchor="middle" font-size="13" fill="#52514e">เบราว์เซอร์</text><line x1="148" y1="162" x2="204" y2="162" stroke="#52514e" stroke-width="1.6" marker-end="url(#หัวลูกศร-52514e)"/><text x="176.0" y="154.0" text-anchor="middle" font-size="12" fill="#52514e">คลิก</text><rect x="210" y="120" width="170" height="84" rx="9" fill="#ffffff" stroke="#52514e" stroke-width="1.4"/><text x="295.0" y="158.68" text-anchor="middle" font-size="13" fill="#52514e" font-weight="600">Web Server</text><text x="295.0" y="174.68" text-anchor="middle" font-size="13" fill="#52514e">รับคลิก ส่งหน้าเว็บ</text><line x1="380" y1="162" x2="430" y2="162" stroke="#52514e" stroke-width="1.6"/><line x1="430" y1="95" x2="430" y2="227" stroke="#52514e" stroke-width="1.6"/><line x1="430" y1="95" x2="552" y2="95" stroke="#eda100" stroke-width="1.6" marker-end="url(#หัวลูกศร-eda100)"/><text x="491.0" y="87.0" text-anchor="middle" font-size="12" fill="#eda100">อ่านนิยามและสิทธิ์</text><rect x="558" y="58" width="214" height="76" rx="10" fill="#ffffff" stroke="#eda100" stroke-width="2.4"/><text x="665" y="84" text-anchor="middle" font-size="14" font-weight="700" fill="#0b0b0b">Metadata Database</text><text x="665" y="103" text-anchor="middle" font-size="12" fill="#52514e">นิยามกราฟ แดชบอร์ด สิทธิ์</text><text x="665" y="122" text-anchor="middle" font-size="12" font-weight="600" fill="#eda100">ส่วนที่ต้องสำรอง</text><line x1="430" y1="167" x2="552" y2="167" stroke="#52514e" stroke-width="1.6" marker-end="url(#หัวลูกศร-52514e)"/><text x="491.0" y="159.0" text-anchor="middle" font-size="12" fill="#52514e">จำผลคิวรีเดิม</text><rect x="558" y="148" width="150" height="40" rx="9" fill="#ffffff" stroke="#52514e" stroke-width="1.4" stroke-dasharray="5 4"/><text x="633.0" y="172.68" text-anchor="middle" font-size="13" fill="#52514e">Cache</text><line x1="430" y1="227" x2="552" y2="227" stroke="#52514e" stroke-width="1.6" marker-end="url(#หัวลูกศร-52514e)"/><text x="491.0" y="219.0" text-anchor="middle" font-size="12" fill="#52514e">สั่งงานเบื้องหลัง</text><rect x="558" y="208" width="190" height="40" rx="9" fill="#ffffff" stroke="#52514e" stroke-width="1.4" stroke-dasharray="5 4"/><text x="653.0" y="232.68" text-anchor="middle" font-size="13" fill="#52514e">Celery Worker</text><line x1="280" y1="208" x2="232" y2="250" stroke="#2a78d6" stroke-width="1.6" marker-end="url(#หัวลูกศร-2a78d6)"/><path d="M150,263 a75.0,9 0 0,1 150,0 v40 a75.0,9 0 0,1 -150,0 z" fill="#ffffff" stroke="#2a78d6" stroke-width="1.4"/><path d="M150,263 a75.0,9 0 0,0 150,0" fill="none" stroke="#2a78d6" stroke-width="1.4"/><text x="225.0" y="292.0" text-anchor="middle" font-size="13" fill="#2a78d6">ฐานข้อมูลของคุณ</text><text x="316" y="248" font-size="12" fill="#2a78d6">ส่ง SQL ทุกครั้งที่เปิดกราฟ</text><text x="316" y="266" font-size="12" fill="#898781">กรอบประ = ขาดไปแล้วยังใช้งานได้ แค่ช้าลง</text><text x="790" y="84" font-size="12" fill="#898781">กรอบหนา คือส่วนที่</text><text x="790" y="102" font-size="12" fill="#898781">หายแล้วงานหายตาม</text><text x="790" y="120" font-size="12" fill="#898781">ไม่ใช่ตัวโปรแกรม</text>
</svg>
