<svg xmlns="http://www.w3.org/2000/svg" viewBox="0 0 470 300" role="img" aria-label="กราฟเส้นอุณหภูมิเดียวกันที่แกนครอบช่วงข้อมูลพอดี เห็นฤดูกาลชัด" font-family="Leelawadee UI, Segoe UI, system-ui, sans-serif"><text x="24" y="26" font-size="14" font-weight="700" fill="#0b0b0b">แกน Y 26–31°C</text><line x1="60" y1="238.0" x2="446" y2="238.0" stroke="#e1e0d9"/><text x="52" y="242.0" text-anchor="end" font-size="11" fill="#898781">26°C</text><line x1="60" y1="199.6" x2="446" y2="199.6" stroke="#e1e0d9"/><text x="52" y="203.6" text-anchor="end" font-size="11" fill="#898781">27°C</text><line x1="60" y1="161.2" x2="446" y2="161.2" stroke="#e1e0d9"/><text x="52" y="165.2" text-anchor="end" font-size="11" fill="#898781">28°C</text><line x1="60" y1="122.8" x2="446" y2="122.8" stroke="#e1e0d9"/><text x="52" y="126.8" text-anchor="end" font-size="11" fill="#898781">29°C</text><line x1="60" y1="84.4" x2="446" y2="84.4" stroke="#e1e0d9"/><text x="52" y="88.4" text-anchor="end" font-size="11" fill="#898781">30°C</text><line x1="60" y1="46.0" x2="446" y2="46.0" stroke="#e1e0d9"/><text x="52" y="50.0" text-anchor="end" font-size="11" fill="#898781">31°C</text><text x="60.0" y="256" text-anchor="middle" font-size="11" fill="#52514e">ม.ค.</text><text x="130.2" y="256" text-anchor="middle" font-size="11" fill="#52514e">มี.ค.</text><text x="200.4" y="256" text-anchor="middle" font-size="11" fill="#52514e">พ.ค.</text><text x="270.5" y="256" text-anchor="middle" font-size="11" fill="#52514e">ก.ค.</text><text x="340.7" y="256" text-anchor="middle" font-size="11" fill="#52514e">ก.ย.</text><text x="410.9" y="256" text-anchor="middle" font-size="11" fill="#52514e">พ.ย.</text><polyline fill="none" stroke="#2a78d6" stroke-width="2.4" points="60.0,199.6 95.1,149.7 130.2,103.6 165.3,65.2 200.4,84.4 235.5,103.6 270.5,119.0 305.6,126.6 340.7,142.0 375.8,149.7 410.9,161.2 446.0,207.3"/><line x1="60" y1="238" x2="446" y2="238" stroke="#52514e" stroke-width="1.4"/><text x="24" y="290" font-size="10.5" fill="#898781">อุณหภูมิเฉลี่ยรายเดือน กรุงเทพฯ (ค่าโดยประมาณ) · ข้อมูลชุดเดียวกันทั้งสองภาพ</text>
</svg>
